# xmcd
#
# Track frame offsets:
#	150
#	14496
#	29138
#	43356
#	57588
#	72453
#	87659
#	102935
#	117669
#	133369
#	148667
#
# Disc length: 2190 seconds
#
# Revision: 1
# Processed by: cddbd v1.5.2PL0 Copyright (c) Steve Scherf et al.
# Submitted via: audiograbber 1.83.01
#
DISCID=bb088c0b
DTITLE=Ray Scott - Ray Scott
DYEAR=2014
DGENRE=Country
TTITLE0=Cookin'
TTITLE1=Ain't Always Thirsty
TTITLE2=Drinkin Beer
TTITLE3=Papa and Mama
TTITLE4=Tijuana Buzzkill
TTITLE5=Wheels On The House
TTITLE6=It Ain't Gonna Be You
TTITLE7=Leave This World
TTITLE8=Her Old Man
TTITLE9=The Ugly One
TTITLE10=I Miss The Days
EXTD=
EXTT0=
EXTT1=
EXTT2=
EXTT3=
EXTT4=
EXTT5=
EXTT6=
EXTT7=
EXTT8=
EXTT9=
EXTT10=
PLAYORDER=
